<svg xmlns="http://www.w3.org/2000/svg" width="1800" height="900" viewBox="0 0 1800 900">
  <defs>
    <linearGradient id="bg" x1="0" y1="0" x2="1" y2="1">
      <stop offset="0%" stop-color="#0f2134"/>
      <stop offset="100%" stop-color="#116273"/>
    </linearGradient>
  </defs>

  <rect width="1800" height="900" fill="url(#bg)"/>

  <g opacity="0.15" fill="#58c5d1">
    <polygon points="820,170 1800,170 1800,280 1020,280 960,340 720,340"/>
    <polygon points="900,250 1800,250 1800,360 1100,360 1040,420 800,420"/>
    <polygon points="980,330 1800,330 1800,440 1180,440 1120,500 880,500"/>
    <polygon points="1060,410 1800,410 1800,520 1260,520 1200,580 960,580"/>
  </g>

  <rect x="0" y="0" width="1800" height="64" fill="#f1edf5"/>
  <text x="30" y="40" font-family="Arial" font-size="18" font-weight="700" fill="#111827">ITSM KPI Project (Wael Ben Fekih)</text>
  <rect x="455" y="14" width="110" height="34" rx="6" fill="#243b53"/>
  <text x="482" y="36" font-family="Arial" font-size="14" font-weight="700" fill="white">Tableau</text>
  <text x="1580" y="38" font-family="Arial" font-size="13" fill="#111827">Filters</text>
  <circle cx="1718" cy="31" r="17" fill="#2e86de"/>
  <text x="1711" y="36" font-family="Arial" font-size="14" font-weight="700" fill="white">W</text>

  <g font-family="Arial" fill="white">
    <rect x="20" y="92" width="320" height="760" rx="8" fill="#13171b"/>
    <text x="38" y="118" font-size="14" font-weight="700">Backlog</text>

    <rect x="375" y="92" width="320" height="760" rx="8" fill="#13171b"/>
    <text x="393" y="118" font-size="14" font-weight="700">To Do</text>

    <rect x="730" y="92" width="320" height="760" rx="8" fill="#13171b"/>
    <text x="748" y="118" font-size="14" font-weight="700">Doing</text>

    <rect x="1085" y="92" width="320" height="760" rx="8" fill="#13171b"/>
    <text x="1103" y="118" font-size="14" font-weight="700">Testing</text>

    <rect x="1440" y="92" width="320" height="760" rx="8" fill="#13171b"/>
    <text x="1458" y="118" font-size="14" font-weight="700">Done</text>
  </g>

  <!-- Backlog -->
  <g font-family="Arial">
    <rect x="30" y="132" width="300" height="84" rx="8" fill="#252a30"/>
    <text x="44" y="154" font-size="12" font-weight="700" fill="white">Analyse des besoins</text>
    <text x="44" y="176" font-size="10" fill="#d1d5db">Recueil des besoins et perimetre du projet</text>

    <rect x="30" y="228" width="300" height="92" rx="8" fill="#252a30"/>
    <text x="44" y="250" font-size="12" font-weight="700" fill="white">Authentification et gestion utilisateurs</text>
    <text x="44" y="272" font-size="10" fill="#d1d5db">Login, roles, reset password, administration</text>

    <rect x="30" y="332" width="300" height="96" rx="8" fill="#252a30"/>
    <text x="44" y="354" font-size="12" font-weight="700" fill="white">Importation des fichiers Excel</text>
    <text x="44" y="376" font-size="10" fill="#d1d5db">Incidents, requests et changes</text>

    <rect x="30" y="440" width="300" height="108" rx="8" fill="#252a30"/>
    <text x="44" y="462" font-size="12" font-weight="700" fill="white">Dashboards et KPI</text>
    <text x="44" y="484" font-size="10" fill="#d1d5db">Dashboard global, KPI, analyses et export PDF</text>

    <rect x="30" y="560" width="300" height="120" rx="8" fill="#252a30"/>
    <text x="44" y="582" font-size="12" font-weight="700" fill="white">Assistant IA et Ollama</text>
    <text x="44" y="604" font-size="10" fill="#d1d5db">Langage naturel, dashboard intelligent, fallback local</text>
  </g>

  <!-- To Do -->
  <g font-family="Arial">
    <rect x="385" y="132" width="300" height="110" rx="8" fill="#252a30"/>
    <rect x="385" y="132" width="300" height="40" rx="8" fill="#2e86de"/>
    <text x="399" y="156" font-size="12" font-weight="700" fill="white">Interface Login et Profil</text>
    <text x="399" y="188" font-size="10" fill="#d1d5db">Connexion, profil et mise a jour du mot de passe</text>

    <rect x="385" y="256" width="300" height="118" rx="8" fill="#252a30"/>
    <text x="399" y="280" font-size="12" font-weight="700" fill="white">Team Management</text>
    <text x="399" y="302" font-size="10" fill="#d1d5db">Ajout, modification et suppression des utilisateurs</text>

    <rect x="385" y="388" width="300" height="104" rx="8" fill="#252a30"/>
    <rect x="385" y="388" width="300" height="38" rx="8" fill="#f1c40f"/>
    <text x="399" y="412" font-size="12" font-weight="700" fill="white">Validation des imports</text>
    <text x="399" y="444" font-size="10" fill="#d1d5db">Verification du format et gestion des erreurs</text>
  </g>

  <!-- Doing -->
  <g font-family="Arial">
    <rect x="740" y="132" width="300" height="122" rx="8" fill="#252a30"/>
    <rect x="740" y="132" width="300" height="40" rx="8" fill="#1abc9c"/>
    <text x="754" y="156" font-size="12" font-weight="700" fill="white">Incidents / Requests / Changes</text>
    <text x="754" y="188" font-size="10" fill="#d1d5db">Consultation des listes, details et analyses par module</text>

    <rect x="740" y="268" width="300" height="118" rx="8" fill="#252a30"/>
    <rect x="740" y="268" width="300" height="40" rx="8" fill="#8e44ad"/>
    <text x="754" y="292" font-size="12" font-weight="700" fill="white">Configuration des KPI</text>
    <text x="754" y="324" font-size="10" fill="#d1d5db">Definition et modification des indicateurs metier</text>

    <rect x="740" y="400" width="300" height="132" rx="8" fill="#252a30"/>
    <text x="754" y="424" font-size="12" font-weight="700" fill="white">Dashboard global</text>
    <text x="754" y="446" font-size="10" fill="#d1d5db">Vue d'ensemble, tendances et synthese des donnees ITSM</text>
  </g>

  <!-- Testing -->
  <g font-family="Arial">
    <rect x="1095" y="132" width="300" height="96" rx="8" fill="#252a30"/>
    <rect x="1095" y="132" width="300" height="40" rx="8" fill="#e85e46"/>
    <text x="1204" y="160" font-size="24" font-weight="700" fill="white">Testing</text>
    <text x="1110" y="192" font-size="10" fill="#d1d5db">Tests BI et tests IA</text>

    <rect x="1095" y="242" width="300" height="116" rx="8" fill="#252a30"/>
    <text x="1110" y="266" font-size="12" font-weight="700" fill="white">Assistant IA</text>
    <text x="1110" y="288" font-size="10" fill="#d1d5db">Verification de l'interpretation et du fallback local</text>

    <rect x="1095" y="372" width="300" height="106" rx="8" fill="#252a30"/>
    <text x="1110" y="396" font-size="12" font-weight="700" fill="white">Docker et build</text>
    <text x="1110" y="418" font-size="10" fill="#d1d5db">Build frontend, backend et verification Docker Compose</text>
  </g>

  <!-- Done -->
  <g font-family="Arial">
    <rect x="1450" y="132" width="300" height="96" rx="8" fill="#252a30"/>
    <rect x="1450" y="132" width="300" height="40" rx="8" fill="#58bf55"/>
    <text x="1548" y="160" font-size="24" font-weight="700" fill="white">Sprint 1 Done</text>
    <text x="1465" y="192" font-size="10" fill="#d1d5db">Authentification, import Excel, gestion equipe</text>

    <rect x="1450" y="242" width="300" height="116" rx="8" fill="#252a30"/>
    <rect x="1450" y="242" width="300" height="40" rx="8" fill="#58bf55"/>
    <text x="1560" y="268" font-size="16" font-weight="700" fill="white">Sprint 2 Done</text>
    <text x="1465" y="298" font-size="10" fill="#d1d5db">Dashboards, KPI, analyses et export PDF</text>

    <rect x="1450" y="372" width="300" height="132" rx="8" fill="#252a30"/>
    <rect x="1450" y="372" width="300" height="40" rx="8" fill="#58bf55"/>
    <text x="1560" y="398" font-size="16" font-weight="700" fill="white">Sprint 3 Done</text>
    <text x="1465" y="428" font-size="10" fill="#d1d5db">Assistant IA, Ollama et dashboard intelligent</text>
  </g>

  <text x="26" y="875" font-family="Arial" font-size="11" fill="#d1d5db">Board adapte au projet KPI ITSM Dashboards pour le rapport.</text>
</svg>
