<svg viewBox="0 0 96 96" xmlns="http://www.w3.org/2000/svg" xmlns:xlink="http://www.w3.org/1999/xlink" id="Icons_HappyFace" overflow="hidden"><style>
.MsftOfcResponsive_Fill_00b050 {
 fill:#00B050; 
}
</style>
<g><g><path d="M48 10C27 10 10 27 10 48 10 69 27 86 48 86 69 86 86 69 86 48 86 27 69 10 48 10ZM26 42C26 38.7 28.7 36 32 36 35.3 36 38 38.7 38 42 38 45.3 35.3 48 32 48 28.7 48 26 45.3 26 42ZM67.8 64.2C63.2 70.2 56.1 74 48 74 39.9 74 32.8 70.2 28.2 64.2 28 63.9 27.8 63.5 27.8 63 27.8 61.9 28.7 61 29.8 61 30.5 61 31.1 61.3 31.4 61.8 35.2 66.8 41.2 69.9 48 69.9 54.8 69.9 60.7 66.8 64.6 61.8 65 61.3 65.6 61 66.2 61 67.3 61 68.2 61.9 68.2 63 68.2 63.5 68 63.9 67.8 64.2ZM64 48C60.7 48 58 45.3 58 42 58 38.7 60.7 36 64 36 67.3 36 70 38.7 70 42 70 45.3 67.3 48 64 48Z" class="MsftOfcResponsive_Fill_00b050" fill="#00B050"/></g></g></svg>